<svg width="32" height="32" viewBox="0 0 32 32" fill="none" xmlns="http://www.w3.org/2000/svg">
  <!-- Background Circle -->
  <circle cx="16" cy="16" r="16" fill="url(#gradient1)"/>
  
  <!-- Main Icon -->
  <g transform="translate(6, 6)">
    <!-- Speech bubble -->
    <path d="M20 4C20 2.89543 19.1046 2 18 2H2C0.895431 2 0 2.89543 0 4V12C0 13.1046 0.895431 14 2 14H4L6 16L8 14H18C19.1046 14 20 13.1046 20 12V4Z" fill="white" fill-opacity="0.95"/>
    
    <!-- Speech bubble tail -->
    <path d="M6 16L8 18L10 16H6Z" fill="white" fill-opacity="0.95"/>
    
    <!-- AI Circuit Pattern -->
    <g transform="translate(4, 4)">
      <!-- Central hub -->
      <circle cx="6" cy="6" r="2" fill="url(#gradient2)"/>
      
      <!-- Circuit nodes -->
      <circle cx="2" cy="2" r="1" fill="url(#gradient2)"/>
      <circle cx="10" cy="2" r="1" fill="url(#gradient2)"/>
      <circle cx="2" cy="10" r="1" fill="url(#gradient2)"/>
      <circle cx="10" cy="10" r="1" fill="url(#gradient2)"/>
      
      <!-- Connecting lines -->
      <path d="M2 2L6 6M10 2L6 6M2 10L6 6M10 10L6 6" stroke="url(#gradient2)" stroke-width="0.8" stroke-linecap="round"/>
      
      <!-- Central AI indicator -->
      <rect x="5" y="5" width="2" height="2" fill="white" rx="0.3"/>
    </g>
    
    <!-- Success indicator -->
    <path d="M12 2L13.5 3.5L16 1" stroke="url(#gradient2)" stroke-width="1.2" stroke-linecap="round" stroke-linejoin="round" fill="none"/>
  </g>
  
  <!-- Gradients -->
  <defs>
    <linearGradient id="gradient1" x1="0%" y1="0%" x2="100%" y2="100%">
      <stop offset="0%" style="stop-color:#3B82F6;stop-opacity:1" />
      <stop offset="50%" style="stop-color:#1D4ED8;stop-opacity:1" />
      <stop offset="100%" style="stop-color:#1E40AF;stop-opacity:1" />
    </linearGradient>
    <linearGradient id="gradient2" x1="0%" y1="0%" x2="100%" y2="100%">
      <stop offset="0%" style="stop-color:#60A5FA;stop-opacity:1" />
      <stop offset="100%" style="stop-color:#3B82F6;stop-opacity:1" />
    </linearGradient>
  </defs>
</svg>

