<svg width="32" height="32" viewBox="0 0 32 32" fill="none" xmlns="http://www.w3.org/2000/svg">
  <!-- Background Circle with Gradient -->
  <circle cx="16" cy="16" r="16" fill="url(#gradient1)"/>
  
  <!-- Main Icon Group -->
  <g transform="translate(8, 8)">
    <!-- Speech Bubble -->
    <path d="M16 2C16 0.895431 15.1046 0 14 0H2C0.895431 0 0 0.895431 0 2V10C0 11.1046 0.895431 12 2 12H4L6 14L8 12H14C15.1046 12 16 11.1046 16 10V2Z" fill="white" fill-opacity="0.95"/>
    
    <!-- Speech bubble tail -->
    <path d="M6 14L8 16L10 14H6Z" fill="white" fill-opacity="0.95"/>
    
    <!-- AI Brain/Circuit -->
    <g transform="translate(3, 3)">
      <!-- Central node -->
      <circle cx="5" cy="5" r="2" fill="url(#gradient2)"/>
      
      <!-- Outer nodes -->
      <circle cx="2" cy="2" r="0.8" fill="url(#gradient2)"/>
      <circle cx="8" cy="2" r="0.8" fill="url(#gradient2)"/>
      <circle cx="2" cy="8" r="0.8" fill="url(#gradient2)"/>
      <circle cx="8" cy="8" r="0.8" fill="url(#gradient2)"/>
      
      <!-- Connecting lines -->
      <path d="M2 2L5 5M8 2L5 5M2 8L5 5M8 8L5 5" stroke="url(#gradient2)" stroke-width="0.6" stroke-linecap="round"/>
      
      <!-- Central AI symbol -->
      <rect x="4.2" y="4.2" width="1.6" height="1.6" fill="white" rx="0.2"/>
    </g>
    
    <!-- Success checkmark -->
    <path d="M11 1L12.5 2.5L15 0" stroke="url(#gradient2)" stroke-width="1.5" stroke-linecap="round" stroke-linejoin="round" fill="none"/>
  </g>
  
  <!-- Gradients -->
  <defs>
    <linearGradient id="gradient1" x1="0%" y1="0%" x2="100%" y2="100%">
      <stop offset="0%" style="stop-color:#3B82F6;stop-opacity:1" />
      <stop offset="50%" style="stop-color:#1D4ED8;stop-opacity:1" />
      <stop offset="100%" style="stop-color:#1E40AF;stop-opacity:1" />
    </linearGradient>
    <linearGradient id="gradient2" x1="0%" y1="0%" x2="100%" y2="100%">
      <stop offset="0%" style="stop-color:#60A5FA;stop-opacity:1" />
      <stop offset="100%" style="stop-color:#3B82F6;stop-opacity:1" />
    </linearGradient>
  </defs>
</svg>

